{"title":"The Losers DVDRip Mp4 FEEL-FREE","uid":5664067,"size":660862287,"categoryP":"video","categoryS":"movies","magnet":"?xt=urn:btih:666746cabb2e3316b351b68c8608e6491ce38bf1&amp;dn=The+Losers+DVDRip+Mp4+FEEL-FREE&amp;tr=udp%3A%2F%2Ftracker.openbittorrent.com%3A80&amp;tr=udp%3A%2F%2Fopen.demonii.com%3A1337&amp;tr=udp%3A%2F%2Ftracker.coppersurfer.tk%3A6969&amp;tr=udp%3A%2F%2Fexodus.desync.com%3A6969","seeders":0,"leechers":1,"uploader":"hiest","files":-1,"time":1278032215,"description":"Genre:Action | Adventure | Crime | Mystery | Thriller \nLanguage:English\nIMDb:http://www.imdb.com/title/tt0480255/\nSubtitles: ROMANA\nEncoder: Tony2\n...........................................\nGeneral\nComplete name : The Losers DVDRip Mp4 FEEL-FREE\nFormat : MPEG-4\nFormat profile : Base Media\nCodec ID : isom\nFile size : 628 MiB\nDuration : 1h 36mn\nOverall bit rate : 905 Kbps\n............................................\nVideo\nID : 1\nFormat : AVC\nFormat/Info : Advanced Video Codec\nFormat profile : &lt;a class=&quot;__cf_email__&quot; href=&quot;/cdn-cgi/l/email-protection&quot; data-cfemail=&quot;e2af838b8ca2aed3ccd1&quot;&gt;[email&amp;#160;protected]&lt;/a&gt;&lt;script cf-hash='f9e31' type=&quot;text/javascript&quot;&gt;\n/* &lt;![CDATA[ */!function(){try{var t=&quot;currentScript&quot;in document?document.currentScript:function(){for(var t=document.getElementsByTagName(&quot;script&quot;),e=t.length;e--;)if(t[e].getAttribute(&quot;cf-hash&quot;))return t[e]}();if(t&amp;&amp;t.previousSibling){var e,r,n,i,c=t.previousSibling,a=c.getAttribute(&quot;data-cfemail&quot;);if(a){for(e=&quot;&quot;,r=parseInt(a.substr(0,2),16),n=2;a.length-n;n+=2)i=parseInt(a.substr(n,2),16)^r,e+=String.fromCharCode(i);e=document.createTextNode(e),c.parentNode.replaceChild(e,c)}}}catch(u){}}();/* ]]&gt; */&lt;/script&gt;\nFormat settings, CABAC : Yes\nFormat settings, ReFrames : 1 frame\nCodec ID : avc1\nCodec ID/Info : Advanced Video Coding\nDuration : 1h 36mn\nBit rate mode : Variable\nBit rate : 773 Kbps\nWidth : 720 pixels\nHeight : 304 pixels\nDisplay aspect ratio : 2.35:1\nFrame rate mode : Constant\nFrame rate : 29.970 fps\nResolution : 24 bits\nColorimetry : 4:2:0\nScan type : Progressive\nBits/(Pixel*Frame) : 0.118\nStream size : 536 MiB (85%)\n..............................................\nAudio\nID : 2\nFormat : AAC\nFormat/Info : Advanced Audio Codec\nFormat version : Version 4\nFormat profile : LC\nFormat settings, SBR : No\nCodec ID : 40\nDuration : 1h 36mn\nBit rate mode : Variable\nBit rate : 128 Kbps\nChannel(s) : 2 channels\nChannel positions : L R\nSampling rate : 44.1 KHz\nResolution : 16 bits\nStream size : 88.7 MiB (14%)\n.............................................\nPlot:\nAfter being betrayed and left for dead, members of a CIA black ops team root out those who targeted them for assassination. \n...................................................\nScreenshots &lt;a href=&quot;\nhttp://postimg.com/image/18000/17337.jpg&quot; rel=&quot;nofollow&quot; target=&quot;_NEW&quot;&gt;\nhttp://postimg.com/image/18000/17337.jpg&lt;/a&gt; &lt;a href=&quot;\nhttp://postimg.com/image/18000/17338.jpg&quot; rel=&quot;nofollow&quot; target=&quot;_NEW&quot;&gt;\nhttp://postimg.com/image/18000/17338.jpg&lt;/a&gt; &lt;a href=&quot;\nhttp://postimg.com/image/18000/17339.jpg&quot; rel=&quot;nofollow&quot; target=&quot;_NEW&quot;&gt;\nhttp://postimg.com/image/18000/17339.jpg&lt;/a&gt;\n..........................................................","torrent":{"xt":"urn:btih:666746cabb2e3316b351b68c8608e6491ce38bf1","amp;dn":"The+Losers+DVDRip+Mp4+FEEL-FREE","amp;tr":["udp%3A%2F%2Ftracker.openbittorrent.com%3A80","udp%3A%2F%2Fopen.demonii.com%3A1337","udp%3A%2F%2Ftracker.coppersurfer.tk%3A6969","udp%3A%2F%2Fexodus.desync.com%3A6969"],"infoHash":"666746cabb2e3316b351b68c8608e6491ce38bf1","infoHashBuffer":{"type":"Buffer","data":[102,103,70,202,187,46,51,22,179,81,182,140,134,8,230,73,28,227,139,241]},"announce":[],"urlList":[]}}